<svg width="623" height="129" viewBox="0 0 623 129" fill="none" xmlns="http://www.w3.org/2000/svg">
<path d="M620.539 123.95C622.169 123.653 623.249 122.09 622.951 120.46L618.101 93.8992C617.804 92.2693 616.241 91.1892 614.611 91.4869C612.981 91.7845 611.901 93.347 612.199 94.9769L616.51 118.587L592.9 122.897C591.27 123.195 590.19 124.758 590.488 126.388C590.786 128.017 592.348 129.097 593.978 128.8L620.539 123.95ZM3.57737 123.551C10.4887 119.279 17.3119 115.119 24.0517 111.071L20.9629 105.927C14.1997 109.989 7.35446 114.162 0.422608 118.447L3.57737 123.551ZM65.4719 87.0608C79.9074 79.02 93.9677 71.5593 107.707 64.6856L105.022 59.3197C91.1948 66.2375 77.0558 73.7404 62.5522 81.8191L65.4719 87.0608ZM150.958 44.5666C166.152 38.0728 180.988 32.3792 195.551 27.496L193.644 21.8073C178.913 26.7468 163.926 32.4991 148.6 39.0494L150.958 44.5666ZM241.363 14.6386C257.202 11.1035 272.809 8.60838 288.302 7.16814L287.747 1.19389C271.986 2.659 256.128 5.19557 240.056 8.7827L241.363 14.6386ZM335.751 6.08174C351.406 6.83389 367.082 8.69412 382.905 11.6828L384.019 5.78702C367.93 2.74815 351.978 0.854449 336.039 0.0886544L335.751 6.08174ZM428.942 23.4118C443.556 28.0713 458.39 33.6641 473.537 40.2066L475.917 34.6985C460.603 28.084 445.583 22.42 430.765 17.6954L428.942 23.4118ZM516.541 60.864C530.081 67.9894 543.91 75.8223 558.087 84.3725L561.185 79.2346C546.919 70.6304 532.988 62.7394 519.336 55.5544L516.541 60.864ZM598.465 110.016C604.996 114.359 611.604 118.843 618.294 123.467L621.706 118.531C614.988 113.888 608.35 109.384 601.787 105.02L598.465 110.016ZM620.539 123.95C622.169 123.653 623.249 122.09 622.951 120.46L618.101 93.8992C617.804 92.2693 616.241 91.1892 614.611 91.4869C612.981 91.7845 611.901 93.347 612.199 94.9769L616.51 118.587L592.9 122.897C591.27 123.195 590.19 124.758 590.488 126.388C590.786 128.017 592.348 129.097 593.978 128.8L620.539 123.95ZM3.57737 123.551C10.4887 119.279 17.3119 115.119 24.0517 111.071L20.9629 105.927C14.1997 109.989 7.35446 114.162 0.422608 118.447L3.57737 123.551ZM65.4719 87.0608C79.9074 79.02 93.9677 71.5593 107.707 64.6856L105.022 59.3197C91.1948 66.2375 77.0558 73.7404 62.5522 81.8191L65.4719 87.0608ZM150.958 44.5666C166.152 38.0728 180.988 32.3792 195.551 27.496L193.644 21.8073C178.913 26.7468 163.926 32.4991 148.6 39.0494L150.958 44.5666ZM241.363 14.6386C257.202 11.1035 272.809 8.60838 288.302 7.16814L287.747 1.19389C271.986 2.659 256.128 5.19557 240.056 8.7827L241.363 14.6386ZM335.751 6.08174C351.406 6.83389 367.082 8.69412 382.905 11.6828L384.019 5.78702C367.93 2.74815 351.978 0.854449 336.039 0.0886544L335.751 6.08174ZM428.942 23.4118C443.556 28.0713 458.39 33.6641 473.537 40.2066L475.917 34.6985C460.603 28.084 445.583 22.42 430.765 17.6954L428.942 23.4118ZM516.541 60.864C530.081 67.9894 543.91 75.8223 558.087 84.3725L561.185 79.2346C546.919 70.6304 532.988 62.7394 519.336 55.5544L516.541 60.864ZM598.465 110.016C604.996 114.359 611.604 118.843 618.294 123.467L621.706 118.531C614.988 113.888 608.35 109.384 601.787 105.02L598.465 110.016Z" fill="#AFBAB4"/>
</svg>
