<svg width="623" height="130" viewBox="0 0 623 130" fill="none" xmlns="http://www.w3.org/2000/svg">
<path d="M620.539 5.74674C622.169 6.04435 623.249 7.60691 622.951 9.23681L618.101 35.7977C617.804 37.4276 616.241 38.5076 614.611 38.21C612.981 37.9124 611.901 36.3499 612.199 34.72L616.51 11.1103L592.9 6.79941C591.27 6.50181 590.19 4.93925 590.488 3.30934C590.786 1.67943 592.348 0.59939 593.978 0.896995L620.539 5.74674ZM3.57739 6.14606C10.4887 10.4182 17.312 14.5782 24.0518 18.6255L20.9629 23.7693C14.1997 19.708 7.35448 15.5346 0.422629 11.2497L3.57739 6.14606ZM65.4719 42.636C79.9074 50.6768 93.9677 58.1375 107.707 65.0112L105.022 70.3771C91.1949 63.4593 77.0558 55.9564 62.5522 47.8777L65.4719 42.636ZM150.958 85.1302C166.152 91.624 180.988 97.3176 195.551 102.201L193.644 107.889C178.913 102.95 163.926 97.1977 148.6 90.6474L150.958 85.1302ZM241.363 115.058C257.202 118.593 272.809 121.088 288.302 122.529L287.747 128.503C271.986 127.038 256.128 124.501 240.056 120.914L241.363 115.058ZM335.751 123.615C351.406 122.863 367.082 121.003 382.905 118.014L384.019 123.91C367.93 126.949 351.978 128.842 336.039 129.608L335.751 123.615ZM428.942 106.285C443.556 101.626 458.39 96.0328 473.537 89.4902L475.917 94.9984C460.603 101.613 445.583 107.277 430.765 112.001L428.942 106.285ZM516.541 68.8329C530.081 61.7074 543.91 53.8746 558.087 45.3244L561.185 50.4622C546.919 59.0665 532.988 66.9575 519.336 74.1425L516.541 68.8329ZM598.465 19.6811C604.996 15.3376 611.604 10.8542 618.294 6.2301L621.706 11.1658C614.988 15.8093 608.35 20.3128 601.787 24.6771L598.465 19.6811ZM620.539 5.74674C622.169 6.04435 623.249 7.60691 622.951 9.23681L618.101 35.7977C617.804 37.4276 616.241 38.5076 614.611 38.21C612.981 37.9124 611.901 36.3499 612.199 34.72L616.51 11.1103L592.9 6.79941C591.27 6.50181 590.19 4.93925 590.488 3.30934C590.786 1.67943 592.348 0.59939 593.978 0.896995L620.539 5.74674ZM3.57739 6.14606C10.4887 10.4182 17.312 14.5782 24.0518 18.6255L20.9629 23.7693C14.1997 19.708 7.35448 15.5346 0.422629 11.2497L3.57739 6.14606ZM65.4719 42.636C79.9074 50.6768 93.9677 58.1375 107.707 65.0112L105.022 70.3771C91.1949 63.4593 77.0558 55.9564 62.5522 47.8777L65.4719 42.636ZM150.958 85.1302C166.152 91.624 180.988 97.3176 195.551 102.201L193.644 107.889C178.913 102.95 163.926 97.1977 148.6 90.6474L150.958 85.1302ZM241.363 115.058C257.202 118.593 272.809 121.088 288.302 122.529L287.747 128.503C271.986 127.038 256.128 124.501 240.056 120.914L241.363 115.058ZM335.751 123.615C351.406 122.863 367.082 121.003 382.905 118.014L384.019 123.91C367.93 126.949 351.978 128.842 336.039 129.608L335.751 123.615ZM428.942 106.285C443.556 101.626 458.39 96.0328 473.537 89.4902L475.917 94.9984C460.603 101.613 445.583 107.277 430.765 112.001L428.942 106.285ZM516.541 68.8329C530.081 61.7074 543.91 53.8746 558.087 45.3244L561.185 50.4622C546.919 59.0665 532.988 66.9575 519.336 74.1425L516.541 68.8329ZM598.465 19.6811C604.996 15.3376 611.604 10.8542 618.294 6.2301L621.706 11.1658C614.988 15.8093 608.35 20.3128 601.787 24.6771L598.465 19.6811Z" fill="#AFBAB4"/>
</svg>
