<svg width="123" height="123" viewBox="0 0 123 123" fill="none" xmlns="http://www.w3.org/2000/svg">
<g clip-path="url(#clip0_496_26)">
<path d="M33.8218 50.2909C37.9588 57.7329 42.7198 64.8949 48.8958 71.4239C55.0998 77.9839 62.7818 83.9619 72.7708 89.0299L72.7808 89.0349L72.7828 89.0299C73.5108 89.4009 74.2038 89.3919 74.8548 89.1479C75.7988 88.7949 76.7818 88.0109 77.7378 87.0619C78.4668 86.3359 79.3808 85.1379 80.3688 83.8389C84.2148 78.7849 88.9698 72.5379 95.6828 75.6459C95.8248 75.7109 95.9588 75.7869 96.0848 75.8719L118.458 88.7239C118.538 88.7699 118.615 88.8189 118.688 88.8709C121.654 90.9069 122.865 94.0429 122.878 97.5539C122.892 101.175 121.549 105.228 119.604 108.655C117.039 113.172 113.217 116.157 108.843 118.18C104.673 120.108 100.045 121.134 95.5758 121.788C88.5868 122.813 81.9978 122.162 75.2878 120.096C68.7378 118.079 62.1118 114.711 54.8878 110.236L54.3618 109.91C51.0358 107.85 47.4558 105.634 43.9728 103.006C31.1078 93.2959 18.0068 79.2829 9.51183 63.9039C2.36083 50.9579 -1.55217 36.9949 0.58083 23.6809C1.74983 16.3749 4.90083 9.74294 10.3328 5.34994C15.0948 1.49694 21.5208 -0.590059 29.7808 0.146941C30.7538 0.230941 31.5738 0.785941 32.0358 1.56594L32.0418 1.56294L46.3658 25.8329C48.4758 28.5509 48.7098 31.2479 47.5688 33.9289C46.6258 36.1469 44.6768 38.1799 42.0928 40.0969C41.3068 40.7469 40.3848 41.4219 39.4338 42.1179C36.2358 44.4589 32.5778 47.1359 33.8218 50.2909ZM44.6698 75.4219C38.0658 68.4399 33.0348 60.8799 28.6948 53.0649C28.6188 52.9419 28.5508 52.8119 28.4928 52.6749C25.3188 45.2159 31.0128 41.0499 35.9858 37.4129C36.8308 36.7949 37.6488 36.1959 38.3868 35.5839L38.3888 35.5869C38.4318 35.5509 38.4768 35.5159 38.5238 35.4819C40.3668 34.1279 41.6948 32.8349 42.2018 31.6449C42.4908 30.9659 42.3838 30.2189 41.7358 29.3799C41.6248 29.2509 41.5228 29.1089 41.4328 28.9569L27.7948 5.85194C21.9258 5.61094 17.3758 7.17294 14.0108 9.89594C9.77183 13.3249 7.28783 18.6549 6.33683 24.5949C4.43183 36.4889 8.05283 49.1889 14.6288 61.0949C22.7068 75.7179 35.2038 89.0719 47.4928 98.3449C50.8718 100.895 54.2688 102.998 57.4248 104.952L57.9508 105.278C64.7688 109.501 70.9678 112.664 77.0028 114.522C82.8788 116.331 88.6368 116.902 94.7318 116.008C98.7408 115.421 102.845 114.523 106.4 112.879C109.751 111.329 112.648 109.094 114.534 105.775C116.03 103.138 117.064 100.122 117.055 97.5529C117.049 95.9229 116.583 94.5239 115.45 93.7089L93.1998 80.9299C90.7388 79.8489 87.5708 84.0109 85.0068 87.3799C83.9028 88.8319 82.8818 90.1719 81.8508 91.1969C80.3738 92.6629 78.7328 93.9199 76.8888 94.6079C74.7528 95.4069 72.4938 95.4419 70.1338 94.2379L70.1358 94.2339C59.5218 88.8489 51.3228 82.4569 44.6698 75.4219Z" fill="#FF4141"/>
</g>
<defs>
<clipPath id="clip0_496_26">
<rect width="122.88" height="122.267" fill="white"/>
</clipPath>
</defs>
</svg>
