<svg width="25" height="25" viewBox="0 0 25 25" fill="none" xmlns="http://www.w3.org/2000/svg">
<g clip-path="url(#clip0_507_5)">
<path d="M12.4999 18.1251C9.53702 18.1251 7.13859 15.8317 6.91788 12.9255L2.82023 9.7587C2.28156 10.4345 1.78585 11.1489 1.38585 11.9302C1.29649 12.1069 1.24994 12.3022 1.24994 12.5003C1.24994 12.6984 1.29649 12.8937 1.38585 13.0704C3.50421 17.2036 7.69796 20.0001 12.4999 20.0001C13.5511 20.0001 14.5652 19.8439 15.5425 19.5915L13.5155 18.0231C13.1808 18.0878 12.8408 18.1219 12.4999 18.1251ZM24.7585 20.3946L20.4402 17.0571C21.7519 15.9516 22.8308 14.5963 23.614 13.07C23.7033 12.8933 23.7499 12.698 23.7499 12.4999C23.7499 12.3018 23.7033 12.1066 23.614 11.9298C21.4956 7.79659 17.3019 5.0001 12.4999 5.0001C10.4888 5.00254 8.51031 5.50884 6.74523 6.47276L1.7757 2.63174C1.71089 2.58132 1.63679 2.54415 1.55762 2.52238C1.47844 2.5006 1.39576 2.49464 1.31428 2.50483C1.2328 2.51503 1.15413 2.54118 1.08277 2.58179C1.0114 2.6224 0.948736 2.67667 0.898353 2.74151L0.131556 3.72862C0.0298368 3.85947 -0.015743 4.02537 0.00484145 4.18982C0.0254259 4.35428 0.110489 4.50383 0.241322 4.60557L23.2241 22.3685C23.2889 22.4189 23.363 22.4561 23.4422 22.4778C23.5214 22.4996 23.6041 22.5056 23.6856 22.4954C23.767 22.4852 23.8457 22.459 23.9171 22.4184C23.9884 22.3778 24.0511 22.3235 24.1015 22.2587L24.8687 21.2716C24.9703 21.1407 25.0159 20.9748 24.9952 20.8103C24.9745 20.6458 24.8894 20.4963 24.7585 20.3946ZM17.5819 14.8478L16.0468 13.661C16.1761 13.2874 16.2447 12.8954 16.2499 12.5001C16.2575 11.9213 16.1293 11.3488 15.8755 10.8285C15.6217 10.3083 15.2495 9.85477 14.7886 9.50448C14.3278 9.15419 13.7912 8.91687 13.2221 8.81156C12.6529 8.70626 12.0669 8.73591 11.5112 8.89815C11.7468 9.21733 11.8742 9.60342 11.8749 10.0001C11.8691 10.1321 11.8489 10.2631 11.8148 10.3907L8.93937 8.16846C9.93819 7.33378 11.1982 6.87606 12.4999 6.8751C13.2387 6.87469 13.9704 7.01991 14.653 7.30244C15.3356 7.58498 15.9559 7.9993 16.4783 8.52171C17.0007 9.04412 17.415 9.66438 17.6976 10.347C17.9801 11.0297 18.1253 11.7613 18.1249 12.5001C18.1249 13.345 17.9183 14.1325 17.5819 14.8481V14.8478Z" fill="#FF4141"/>
</g>
<defs>
<clipPath id="clip0_507_5">
<rect width="25" height="25" fill="white"/>
</clipPath>
</defs>
</svg>
