<svg width="123" height="113" viewBox="0 0 123 113" fill="none" xmlns="http://www.w3.org/2000/svg">
<g clip-path="url(#clip0_493_15)">
<path d="M15.31 87.5499C15.5365 89.1428 15.9493 90.7034 16.54 92.1999C17.1542 93.7938 18.0904 95.244 19.29 96.4599C23.17 100.31 28.21 100.3 33.73 100.3H36.35C38.62 97.0299 43.95 94.7399 50.15 94.7399C58.42 94.7399 65.15 98.8099 65.15 103.84C65.15 108.87 58.44 112.94 50.15 112.94C44.08 112.94 38.85 110.74 36.5 107.58H33.73C26.65 107.58 20.18 107.58 14.18 101.64C12.2775 99.7255 10.7869 97.442 9.8 94.9299C8.87452 92.5609 8.26918 90.079 8 87.5499C5.86353 87.4978 3.83182 86.6137 2.33756 85.0858C0.843306 83.5579 0.00457681 81.507 0 79.3699L0 49.8699C0.00528102 47.7021 0.868796 45.6245 2.4017 44.0916C3.9346 42.5587 6.01215 41.6952 8.18 41.6899H8.76C10.24 26.5399 19.76 14.6899 32.63 7.59993C40.2641 3.42003 48.6945 0.898416 57.37 0.199934C66.1867 -0.57054 75.0628 0.684772 83.32 3.86993C97.77 9.57993 109.88 21.7099 114.57 41.6899H114.7C116.868 41.6952 118.945 42.5587 120.478 44.0916C122.011 45.6245 122.875 47.7021 122.88 49.8699V79.3699C122.875 81.5378 122.011 83.6153 120.478 85.1482C118.945 86.6811 116.868 87.5447 114.7 87.5499H106.52V42.4099C102.33 25.9999 92.29 15.9999 80.38 11.3199C73.2574 8.57899 65.6019 7.50489 58 8.17993C50.4666 8.77301 43.1435 10.9505 36.51 14.5699C25.37 20.7499 17.24 30.9999 16.58 44.0499C16.5635 44.442 16.4893 44.8295 16.36 45.1999V87.5499H15.31Z" fill="#FF4141"/>
</g>
<defs>
<clipPath id="clip0_493_15">
<rect width="122.88" height="112.92" fill="white"/>
</clipPath>
</defs>
</svg>
