<svg width="93" height="123" viewBox="0 0 93 123" fill="none" xmlns="http://www.w3.org/2000/svg">
<g clip-path="url(#clip0_495_20)">
<path d="M47.4892 116.85C53.7992 112.84 59.4692 107.98 64.4092 102.56C75.1392 90.8099 82.3792 76.4499 85.2792 62.3599C88.1592 48.4499 86.7992 34.8199 80.4292 24.2999C78.6192 21.2799 76.3492 18.5199 73.6492 16.0399C65.9092 8.98994 57.0492 5.62994 48.1292 5.53994C38.7592 5.46994 29.2592 8.98994 20.8592 15.6799C17.2792 18.5399 14.3292 21.8299 12.0392 25.4599C6.13919 34.7399 4.34919 46.2599 6.29919 58.3099C8.26919 70.5399 14.0792 83.3299 23.3392 94.9199C29.7792 103 37.8792 110.5 47.5192 116.83L47.4892 116.85ZM46.1292 21.1599C53.1792 21.1599 59.5792 24.0199 64.1892 28.6499C68.8192 33.2799 71.6792 39.6499 71.6792 46.7099C71.6792 53.7599 68.8192 60.1599 64.1892 64.7699C59.5592 69.3999 53.1892 72.2599 46.1292 72.2599C39.0792 72.2599 32.6792 69.3999 28.0692 64.7699C23.4392 60.1399 20.5792 53.7699 20.5792 46.7099C20.5792 39.6599 23.4392 33.2599 28.0692 28.6499C32.6992 24.0199 39.0692 21.1599 46.1292 21.1599ZM60.5092 32.3299C56.8392 28.6599 51.7292 26.3599 46.1292 26.3599C40.4992 26.3599 35.4192 28.6299 31.7492 32.3299C28.0792 35.9999 25.7792 41.1099 25.7792 46.7099C25.7792 52.3399 28.0492 57.4199 31.7492 61.0899C35.4192 64.7599 40.5292 67.0599 46.1292 67.0599C51.7592 67.0599 56.8392 64.7899 60.5092 61.0899C64.1792 57.4199 66.4792 52.3099 66.4792 46.7099C66.4692 41.0799 64.2092 35.9999 60.5092 32.3299ZM68.5192 106.27C62.9192 112.39 56.4292 117.88 49.0992 122.33C48.2192 122.99 46.9692 123.08 45.9692 122.44C35.1692 115.57 26.1192 107.31 18.9792 98.3499C9.14919 86.0199 2.93919 72.3399 0.829187 59.1599C-1.32081 45.7999 0.689187 32.9599 7.33919 22.4799C9.96919 18.3499 13.3092 14.5899 17.4092 11.3399C26.7792 3.87994 37.5092 -0.070062 48.1692 -6.20466e-05C58.4492 0.089938 68.5892 3.89994 77.3892 11.9299C80.4792 14.7399 83.0592 17.9199 85.1692 21.4099C92.3192 33.1799 93.8592 48.2199 90.7292 63.4199C87.6192 78.4599 79.9292 93.7499 68.5492 106.22L68.5192 106.27Z" fill="#FF4141"/>
</g>
<defs>
<clipPath id="clip0_495_20">
<rect width="92.26" height="122.88" fill="white"/>
</clipPath>
</defs>
</svg>
