<svg width="123" height="123" viewBox="0 0 123 123" fill="none" xmlns="http://www.w3.org/2000/svg">
<g clip-path="url(#clip0_6942_6)">
<path d="M68.23 13.49C78.67 14.98 88.02 19.85 95.14 26.97C102.43 34.26 107.37 43.9 108.72 54.65H122.89V68.23H108.5C106.88 78.36 102.08 87.43 95.14 94.36C88.03 101.47 78.67 106.35 68.23 107.84V122.88H54.65V107.84C44.21 106.35 34.86 101.48 27.75 94.36C20.81 87.42 16.01 78.36 14.39 68.23H0V54.65H14.16C15.51 43.9 20.45 34.26 27.74 26.97C34.85 19.86 44.2 14.98 54.64 13.49V0H68.22V13.49H68.23ZM61.44 35.41C75.39 35.41 86.69 46.72 86.69 60.66C86.69 74.61 75.38 85.91 61.44 85.91C47.49 85.91 36.19 74.6 36.19 60.66C36.19 46.72 47.49 35.41 61.44 35.41ZM89 33.11C81.95 26.06 72.2 21.69 61.44 21.69C50.68 21.69 40.93 26.05 33.88 33.11C26.83 40.16 22.46 49.91 22.46 60.67C22.46 71.43 26.82 81.18 33.88 88.23C40.93 95.28 50.68 99.65 61.44 99.65C72.2 99.65 81.95 95.29 89 88.23C96.05 81.18 100.42 71.43 100.42 60.67C100.41 49.9 96.05 40.16 89 33.11Z" fill="white"/>
</g>
<defs>
<clipPath id="clip0_6942_6">
<rect width="122.88" height="122.88" fill="white"/>
</clipPath>
</defs>
</svg>
