<svg width="210" height="210" viewBox="0 0 210 210" fill="none" xmlns="http://www.w3.org/2000/svg">
<g clip-path="url(#clip0_491_9)">
<path d="M116.604 23.0542C134.446 25.6006 150.425 33.9233 162.593 46.0913C175.051 58.5498 183.494 75.0244 185.801 93.396H210.017V116.604H185.425C182.656 133.916 174.453 149.417 162.593 161.26C150.442 173.411 134.446 181.75 116.604 184.297V210H93.396V184.297C75.5542 181.75 59.5752 173.428 47.4243 161.26C35.564 149.399 27.3608 133.916 24.5923 116.604H0V93.396H24.1992C26.5063 75.0244 34.9487 58.5498 47.4072 46.0913C59.5581 33.9404 75.5371 25.6006 93.3789 23.0542V0H116.587V23.0542H116.604ZM105 60.5151C128.84 60.5151 148.152 79.8438 148.152 103.667C148.152 127.507 128.823 146.819 105 146.819C81.1597 146.819 61.8481 127.49 61.8481 103.667C61.8481 79.8438 81.1597 60.5151 105 60.5151ZM152.1 56.5845C140.051 44.5361 123.389 37.0679 105 37.0679C86.6113 37.0679 69.9487 44.519 57.9004 56.5845C45.8521 68.6328 38.3838 85.2954 38.3838 103.684C38.3838 122.073 45.835 138.735 57.9004 150.784C69.9487 162.832 86.6113 170.3 105 170.3C123.389 170.3 140.051 162.849 152.1 150.784C164.148 138.735 171.616 122.073 171.616 103.684C171.599 85.2783 164.148 68.6328 152.1 56.5845Z" fill="black"/>
</g>
<defs>
<clipPath id="clip0_491_9">
<rect width="210" height="210" fill="white"/>
</clipPath>
</defs>
</svg>
