<svg width="123" height="115" viewBox="0 0 123 115" fill="none" xmlns="http://www.w3.org/2000/svg">
<g clip-path="url(#clip0_474_5)">
<path d="M118.661 9.63001C119.331 9.50001 120.031 9.63001 120.611 9.98001C121.601 10.39 122.301 11.36 122.301 12.5L122.871 92.08C122.921 93.06 122.441 94.03 121.541 94.56L89.0411 113.95C88.5811 114.3 88.0111 114.5 87.3911 114.5C87.2411 114.5 87.0911 114.49 86.9511 114.46L2.61106 105.08C1.16106 105.02 0.00105715 103.82 0.00105715 102.35V21.42C-0.0289429 20.34 0.581057 19.29 1.64106 18.83L43.9511 0.230012C44.3911 0.0300123 44.8911 -0.0499877 45.4111 0.0200123L118.661 9.63001ZM90.1411 33.86V106.92L117.401 90.66L116.871 17.01L90.1411 33.86ZM84.6511 108.69V34.63L48.6811 30.04L47.5011 64.41L34.8711 55.81L22.2411 62.95L24.8511 27L5.49106 24.53V99.9L84.6511 108.69ZM78.9611 9.94001L52.4311 25L86.9411 29.4L111.131 14.16L78.9611 9.94001ZM28.2311 21.91L53.9511 6.66001L45.4711 5.55001L12.7411 19.94L28.2311 21.91Z" fill="#FF4141"/>
</g>
<defs>
<clipPath id="clip0_474_5">
<rect width="122.88" height="114.5" fill="white"/>
</clipPath>
</defs>
</svg>
