<svg width="26" height="26" viewBox="0 0 26 26" fill="none" xmlns="http://www.w3.org/2000/svg">
<g clip-path="url(#clip0_7020_2)">
<path d="M24.2858 1.71513L19.2077 0.543253C18.6559 0.4163 18.0895 0.704385 17.8649 1.22196L15.5211 6.69071C15.3161 7.16923 15.4528 7.73075 15.8581 8.0579L18.817 10.4798C17.0592 14.2249 13.9879 17.3401 10.1647 19.1321L7.74282 16.1731C7.41079 15.7679 6.85415 15.6311 6.37563 15.8362L0.906881 18.18C0.38442 18.4095 0.0963338 18.9759 0.223287 19.5276L1.39516 24.6058C1.51723 25.1331 1.98598 25.514 2.53774 25.514C15.0426 25.514 25.194 15.3821 25.194 2.85771C25.194 2.31083 24.818 1.8372 24.2858 1.71513Z" fill="#AAB0BF"/>
</g>
<defs>
<clipPath id="clip0_7020_2">
<rect width="25" height="25" fill="white" transform="translate(0.19397 0.513916)"/>
</clipPath>
</defs>
</svg>
