<svg width="26" height="26" viewBox="0 0 26 26" fill="none" xmlns="http://www.w3.org/2000/svg">
<g clip-path="url(#clip0_7020_4)">
<path d="M14.7203 24.1486C14.4692 25.0768 13.5205 25.293 12.5997 25.293C11.679 25.293 10.7303 25.0768 10.4792 24.1486C10.1059 22.7604 9.47473 19.2821 9.47473 17.6636C9.47473 15.947 10.9953 15.5273 12.5997 15.5273C14.2041 15.5273 15.7247 15.947 15.7247 17.6636C15.7247 19.2724 15.0963 22.7504 14.7203 24.1486ZM9.32175 14.3825C8.40901 13.4886 7.85896 12.2256 7.91628 10.8376C8.01658 8.40972 9.98635 6.44526 12.4145 6.35127C15.0832 6.24795 17.2872 8.38901 17.2872 11.0352C17.2872 12.3451 16.747 13.5311 15.8778 14.3824C15.7471 14.5104 15.7605 14.7235 15.9084 14.831C16.3631 15.1613 16.7121 15.5802 16.9452 16.0694C17.0302 16.2479 17.2625 16.297 17.4066 16.1618C18.8141 14.8413 19.6797 12.9497 19.6288 10.8607C19.5383 7.13975 16.5236 4.1123 12.803 4.00679C8.83357 3.89419 5.56848 7.09058 5.56848 11.0352C5.56848 13.0547 6.42454 14.8779 7.7926 16.1616C7.93679 16.2969 8.16912 16.248 8.25418 16.0694C8.48728 15.5801 8.83635 15.1613 9.29104 14.831C9.43894 14.7236 9.45237 14.5104 9.32175 14.3825ZM12.5997 0.292969C6.555 0.292969 1.66223 5.18481 1.66223 11.2305C1.66223 15.6246 4.23069 19.3187 7.80183 21.0648C8.0134 21.1683 8.25432 20.9895 8.21858 20.7567C8.10227 19.9993 8.00657 19.2457 7.95461 18.5917C7.94749 18.5021 7.89851 18.4215 7.82385 18.3714C5.5094 16.8184 3.98772 14.1714 4.00613 11.1768C4.03503 6.47769 7.87771 2.64902 12.5769 2.63677C17.326 2.62437 21.1935 6.48423 21.1935 11.2305C21.1935 14.2545 19.6233 16.9185 17.2555 18.4505C17.2067 19.1359 17.1056 19.9441 16.9809 20.7567C16.9451 20.9895 17.1861 21.1683 17.3976 21.0648C20.9604 19.3226 23.5372 15.6341 23.5372 11.2305C23.5372 5.18579 18.6454 0.292969 12.5997 0.292969ZM12.5997 8.10547C10.8739 8.10547 9.47473 9.50459 9.47473 11.2305C9.47473 12.9563 10.8739 14.3555 12.5997 14.3555C14.3256 14.3555 15.7247 12.9563 15.7247 11.2305C15.7247 9.50459 14.3256 8.10547 12.5997 8.10547Z" fill="#AAB0BF"/>
</g>
<defs>
<clipPath id="clip0_7020_4">
<rect width="25" height="25" fill="white" transform="translate(0.0997314 0.292969)"/>
</clipPath>
</defs>
</svg>
