<svg width="179" height="222" viewBox="0 0 179 222" fill="none" xmlns="http://www.w3.org/2000/svg">
<g clip-path="url(#clip0_491_4)">
<path d="M14.0072 0H113.756C114.312 4.66062e-05 114.861 0.11763 115.368 0.345014C115.875 0.572398 116.328 0.904428 116.698 1.31926L177.797 60.4559C178.174 60.8203 178.475 61.2573 178.679 61.7405C178.884 62.2238 178.988 62.7433 178.987 63.268H179V208.009C179 211.841 177.423 215.334 174.886 217.877L174.864 217.899C172.318 220.429 168.825 222 164.993 222H14.0072C10.1535 222 6.64733 220.425 4.11005 217.89C1.57711 215.36 0 211.858 0 208.009V13.9911C0 10.1418 1.57711 6.63969 4.11005 4.10532C6.64733 1.5753 10.1535 0 14.0072 0ZM38.4416 179.814C36.2649 179.814 34.4966 178.052 34.4966 175.878C34.4966 173.704 36.2649 171.938 38.4416 171.938H140.558C142.735 171.938 144.499 173.704 144.499 175.878C144.499 178.052 142.735 179.814 140.558 179.814H38.4416ZM38.4416 147.605C36.2649 147.605 34.4966 145.843 34.4966 143.669C34.4966 141.495 36.2649 139.729 38.4416 139.729H138.968C141.145 139.729 142.913 141.495 142.913 143.669C142.913 145.843 141.145 147.605 138.968 147.605H38.4416ZM38.4416 115.396C36.2649 115.396 34.4966 113.63 34.4966 111.456C34.4966 109.281 36.2649 107.52 38.4416 107.52H119.782C121.959 107.52 123.727 109.281 123.727 111.456C123.727 113.63 121.959 115.396 119.782 115.396H38.4416ZM38.4416 83.1827C36.2649 83.1827 34.4966 81.4208 34.4966 79.2467C34.4966 77.0725 36.2649 75.3062 38.4416 75.3062H88.1662C90.3429 75.3062 92.1068 77.0725 92.1068 79.2467C92.1068 81.4208 90.3429 83.1827 88.1662 83.1827H38.4416ZM38.4416 50.9737C36.2649 50.9737 34.4966 49.2118 34.4966 47.0376C34.4966 45.9926 34.9122 44.9903 35.6521 44.2514C36.3919 43.5124 37.3953 43.0972 38.4416 43.0972H62.8976C63.4157 43.0972 63.9287 43.1992 64.4073 43.3972C64.8859 43.5952 65.3208 43.8855 65.6872 44.2514C66.0535 44.6173 66.3441 45.0516 66.5423 45.5297C66.7406 46.0078 66.8426 46.5202 66.8426 47.0376C66.8426 49.2118 65.0743 50.9737 62.8976 50.9737H38.4416ZM115.068 10.6799V60.3257H166.366L115.068 10.6799ZM171.114 68.2022H111.128C108.951 68.2022 107.183 66.436 107.183 64.2618V7.8765H14.0072C12.3301 7.8765 10.7965 8.5665 9.68425 9.67746C8.57636 10.7841 7.88556 12.316 7.88556 13.9911V208.009C7.88556 209.684 8.57636 211.216 9.68425 212.323C10.7965 213.434 12.3301 214.124 14.0072 214.124H164.993C166.683 214.124 168.212 213.438 169.311 212.34L169.329 212.323C170.428 211.225 171.114 209.697 171.114 208.009V68.2022Z" fill="white"/>
</g>
<defs>
<clipPath id="clip0_491_4">
<rect width="179" height="222" fill="white"/>
</clipPath>
</defs>
</svg>
