<svg width="123" height="119" viewBox="0 0 123 119" fill="none" xmlns="http://www.w3.org/2000/svg">
<g clip-path="url(#clip0_473_2)">
<path d="M44.5905 83.4499C51.3705 97.5799 71.9405 98.0499 78.3705 83.4399C76.5305 81.4699 74.8504 79.1299 73.3504 77.0399L73.3104 76.9899C70.1804 79.4799 66.3904 81.0599 61.4404 81.0499C56.1104 81.0399 52.0904 78.9999 48.8004 75.9899C48.6004 75.8099 48.4105 75.6299 48.2205 75.4399C47.7505 76.7499 47.1504 78.3199 46.5104 79.7799C45.9004 81.1799 45.2305 82.4999 44.5905 83.4499ZM80.6704 82.2599C88.1404 87.1099 105.14 88.3699 111.75 92.0499C113.99 93.2999 116.01 94.8899 117.64 97.0399C121.03 101.52 127.97 117.78 116.72 118.64H95.5604L98.1605 89.5199C92.6905 88.4499 86.8604 87.1399 80.8204 83.8099C80.5004 83.8099 80.3805 83.9499 79.9105 84.3699C75.7005 100.44 49.8805 102.8 42.7005 84.0099C37.0705 86.8499 31.3304 88.4699 24.7804 89.4799L28.8604 118.65H6.17045C-5.07955 117.79 1.86045 101.53 5.25045 97.0499C6.88045 94.8999 8.90045 93.3099 11.1404 92.0599C17.8504 88.2999 35.3305 87.0699 42.5905 81.9999C43.1205 81.1999 43.7005 80.0299 44.2505 78.7699C45.0805 76.8699 45.8405 74.7899 46.3305 73.3699C44.3005 70.9799 42.5604 68.2799 40.8904 65.6299L35.5805 57.1799C35.2005 57.1499 34.8205 57.0699 34.4305 56.9599C30.1005 55.5999 26.4904 45.9599 27.2004 41.4099C27.6004 38.8299 28.5204 37.8999 29.9904 37.3399C29.9204 37.1299 29.8804 36.9099 29.8804 36.6699V26.9499C29.8804 23.2999 30.9805 19.7099 32.7505 16.4499C34.7005 12.8799 37.4705 9.69994 40.5005 7.27994C46.6905 2.36994 54.7104 -0.0900585 62.6904 -5.85036e-05C70.6004 0.0799415 78.4904 2.66994 84.5204 7.78994C87.4304 10.2599 89.8904 13.4999 91.6004 17.0799C93.2704 20.5699 94.2404 24.3899 94.2404 28.1399V36.1599C94.2404 37.2999 93.3205 38.2199 92.1805 38.2199C91.0405 38.2199 90.1205 37.2999 90.1205 36.1599V28.1399C90.1205 24.9999 89.3005 21.7899 87.9005 18.8499C86.4405 15.7899 84.3405 13.0299 81.8605 10.9299C76.5705 6.43994 69.6305 4.17994 62.6505 4.10994C55.5805 4.02994 48.5005 6.18994 43.0605 10.5299C40.4305 12.6299 38.0304 15.3699 36.3504 18.4399C34.9004 21.1099 34.0005 24.0299 34.0005 26.9699V36.2499L34.0605 36.2299L35.7604 38.3399C35.6204 34.7199 35.6105 30.8599 35.7705 27.4499C35.8905 26.2599 36.1105 25.0799 36.4505 23.8899C37.8505 18.8699 41.3805 14.8299 45.7405 12.0499C57.0305 4.85994 73.4505 5.87994 82.8005 15.9899C85.8505 19.2899 87.7705 23.6699 88.1805 29.4699L87.8404 43.7399C89.3604 44.1999 90.3404 45.1699 90.7404 46.7399C91.1804 48.4699 90.7005 50.9199 89.2305 54.2499C89.2005 54.3099 89.1704 54.3699 89.1404 54.4299L82.8705 64.7499C80.5705 68.5399 78.2305 72.3399 75.1905 75.3399L75.3804 75.5999C76.9704 77.8199 78.7804 80.3399 80.6704 82.2599ZM38.6305 45.7399L41.0504 52.3799C41.3104 53.1399 41.3904 53.8099 41.2804 54.3799L41.3004 54.3599C45.0604 58.5199 49.6905 61.5299 55.2505 63.3099C55.5305 62.6699 55.9205 62.0999 56.4905 61.6599C58.1905 60.3499 63.1604 60.4699 64.7004 61.7399C65.9904 62.8099 66.0105 65.2499 65.0505 66.5299C63.0605 69.1899 54.7905 66.9499 52.0205 66.0599C47.5205 64.6199 43.4404 61.0899 39.7304 57.9799L43.5005 63.9699C45.7105 67.4799 48.0204 71.0499 50.8904 73.6799C53.6504 76.2099 57.0004 77.9099 61.4404 77.9299C66.2404 77.9399 69.7504 76.1599 72.6004 73.4999C75.5604 70.7299 77.9004 66.9199 80.2104 63.1299L86.4005 52.9299C87.5505 50.2999 87.9804 48.5299 87.7104 47.4999C87.5504 46.8799 86.8705 46.5799 85.7205 46.5299C85.4705 46.5199 85.2205 46.5199 84.9705 46.5199C84.6905 46.5299 84.4004 46.5499 84.1004 46.5799C83.9404 46.5899 83.7805 46.5799 83.6205 46.5499C83.0705 46.5799 82.5004 46.5399 81.9204 46.4599L84.0405 37.0699C68.3005 39.5499 56.5304 27.8599 39.8904 34.7299L41.0905 45.7999C40.4205 45.8299 39.7804 45.8099 39.1904 45.7199C39.0004 45.7099 38.8105 45.7299 38.6305 45.7399Z" fill="#FF4141"/>
</g>
<defs>
<clipPath id="clip0_473_2">
<rect width="122.88" height="118.63" fill="white"/>
</clipPath>
</defs>
</svg>
