<svg width="193" height="210" viewBox="0 0 193 210" fill="none" xmlns="http://www.w3.org/2000/svg">
<g clip-path="url(#clip0_491_6)">
<path d="M75.366 174.419C73.4191 174.47 71.7113 173.035 71.438 171.069C71.1477 169.019 72.531 167.122 74.5462 166.729C72.3261 154.133 66.2633 147.195 59.859 139.863C54.8722 134.155 49.6976 128.225 45.6159 119.492C41.6025 110.896 39.3994 102.009 39.4678 92.7808C39.5532 83.5523 41.8929 74.0503 46.9821 64.2236C47.0163 64.1553 47.0505 64.104 47.0846 64.0356C53.7622 52.7222 63.1039 45.1685 73.5045 40.9302C82.2314 37.3584 91.7098 36.145 101 36.9995C110.257 37.854 119.325 40.7593 127.249 45.4419C137.325 51.4063 145.608 60.2588 150.168 71.4355C152.627 77.4854 154.301 84.2358 154.506 91.6357C154.711 99.0015 153.447 106.948 150.049 115.356C145.506 126.619 139.494 133.608 133.876 140.154C128.701 146.187 123.885 151.792 121.204 160.388C122.724 160.747 123.919 161.995 124.158 163.635C124.449 165.754 122.963 167.72 120.845 168.01L119.53 168.198C119.291 170.061 119.137 172.061 119.069 174.197L119.496 174.128C121.614 173.838 123.578 175.325 123.868 177.444C124.158 179.563 122.672 181.528 120.555 181.819L119.223 182.007C119.24 182.263 119.257 182.52 119.274 182.776C119.393 184.28 119.411 185.732 119.325 187.117L119.547 187.083C121.682 186.826 123.612 188.347 123.885 190.466C124.141 192.603 122.621 194.534 120.504 194.807L117.634 195.166C115.585 200.481 111.93 204.514 107.61 207.026C104.638 208.752 101.342 209.744 98.0287 209.949C94.6643 210.154 91.2657 209.521 88.1575 208.018C84.6053 206.274 81.4287 203.386 79.1232 199.233C78.0131 198.669 77.1934 197.576 77.0226 196.243C76.9543 195.713 77.0055 195.2 77.1421 194.722C76.4761 192.739 75.9637 190.569 75.6563 188.176L75.5368 188.193C73.4191 188.484 71.4551 186.997 71.1648 184.878C70.8744 182.759 72.3602 180.793 74.4779 180.503L75.4002 180.366C75.4685 178.281 75.4514 176.299 75.366 174.419ZM113.416 68.9404C114.407 68.9575 115.414 69.1455 116.388 69.4702C118.437 70.1709 120.401 71.521 121.921 73.3154C123.441 75.127 124.534 77.3999 124.807 79.9292C124.927 81.04 124.893 82.1851 124.671 83.3643C125.729 84.3384 126.617 85.415 127.284 86.5772C128.377 88.4399 128.94 90.5078 128.872 92.6099C128.803 94.729 128.12 96.8482 126.669 98.7964C125.798 99.9756 124.653 101.086 123.219 102.095C123.321 105.239 122.382 108.076 120.862 110.264C119.171 112.708 116.746 114.399 114.202 114.929C113.587 117.134 112.101 119.082 110.222 120.432C107.763 122.192 104.553 123.013 101.615 122.209C99.5999 121.663 97.7554 120.381 96.4233 118.193C94.818 120.62 92.7003 121.919 90.4801 122.38C87.6452 122.979 84.7077 122.107 82.4876 120.381C80.7798 119.048 79.4818 117.185 78.9695 115.066C78.1497 114.998 77.3129 114.827 76.5102 114.553C74.5121 113.87 72.5823 112.571 71.0965 110.828C69.5936 109.084 68.4835 106.897 68.1419 104.453C67.9712 103.24 67.9882 101.958 68.2444 100.659C67.3222 99.8047 66.5366 98.8477 65.8876 97.8052C64.7434 95.9424 64.0944 93.8403 64.1286 91.6699C64.1627 89.4824 64.8459 87.2778 66.3487 85.2271C67.1856 84.082 68.2956 82.9883 69.679 81.98C69.6619 81.6382 69.6619 81.2964 69.679 80.9717C69.7985 77.793 70.9598 75.0073 72.6506 72.9395C72.7018 72.8882 72.736 72.8369 72.7872 72.7856C74.4779 70.7861 76.681 69.4531 78.9695 69.0601C79.0549 68.7524 79.1403 68.4619 79.2427 68.1543C80.0454 66.001 81.6678 64.1553 83.666 62.9932C85.6812 61.814 88.1063 61.3013 90.4631 61.7969C92.5808 62.2412 94.6131 63.4546 96.1842 65.6763C97.7554 63.4546 99.7877 62.2412 101.905 61.7969C104.057 61.3525 106.26 61.7285 108.156 62.6856C110.018 63.6255 111.623 65.1465 112.596 66.958C112.972 67.6074 113.245 68.2568 113.416 68.9404ZM114.065 109.973C115.124 109.529 116.149 108.674 116.934 107.529C118.044 105.906 118.676 103.735 118.369 101.292L118.352 101.223V101.172C118.232 100.249 118.659 99.292 119.513 98.7793C120.999 97.9077 122.075 96.9507 122.826 95.9253C123.646 94.7974 124.056 93.6182 124.09 92.4561C124.124 91.2769 123.783 90.0977 123.134 88.9868C122.536 87.9614 121.682 87.0215 120.64 86.2183C119.752 85.6372 119.342 84.5093 119.701 83.4497C120.059 82.3901 120.145 81.3818 120.042 80.4077C119.872 78.9038 119.206 77.5195 118.266 76.3916C117.31 75.2637 116.097 74.4263 114.868 73.999C114.338 73.8281 113.809 73.7256 113.314 73.7256C112.938 74.8535 112.323 75.9814 111.401 77.0752C110.547 78.0835 109.044 78.2202 108.036 77.3657C107.029 76.5112 106.892 75.0073 107.746 73.999C109.147 72.3413 109.164 70.5981 108.429 69.2481C107.917 68.291 107.063 67.4878 106.055 66.9922C105.082 66.4966 103.989 66.2915 102.947 66.5137C101.427 66.8213 99.9585 68.103 99.0021 70.769V111.272C99.19 111.545 99.3095 111.853 99.3608 112.212C99.9073 115.562 101.325 117.168 102.913 117.612C104.382 118.022 106.09 117.527 107.456 116.553C108.788 115.596 109.744 114.211 109.761 112.759C109.778 111.101 108.515 109.204 105.15 107.478C103.972 106.88 103.494 105.427 104.091 104.248C104.689 103.069 106.141 102.59 107.319 103.188C111.128 105.12 113.211 107.529 114.065 109.973ZM79.1915 73.9478C78.218 74.2725 77.2617 74.939 76.459 75.8618C76.4248 75.9131 76.3907 75.9473 76.3565 75.9814C75.2635 77.3145 74.5292 79.0918 74.4438 81.1426C74.4267 81.6895 74.4438 82.2705 74.5292 82.8687C74.6487 83.7744 74.2388 84.7144 73.4191 85.2441C71.9845 86.1328 70.9257 87.0898 70.1913 88.0981C69.3033 89.2944 68.9105 90.5591 68.8934 91.7554C68.8763 92.9858 69.252 94.1992 69.9351 95.3101C70.5158 96.25 71.3014 97.1045 72.2749 97.8223C73.1458 98.4204 73.5386 99.5313 73.1971 100.574C72.8214 101.702 72.736 102.795 72.8726 103.821C73.0775 105.291 73.7607 106.624 74.7 107.717C75.6392 108.811 76.8176 109.614 78.0302 110.024C78.423 110.161 78.8158 110.247 79.1915 110.281C80.0625 107.734 82.2485 105.222 86.2277 103.188C87.4061 102.59 88.8406 103.052 89.4555 104.231C90.0532 105.41 89.5921 106.846 88.4137 107.461C84.8444 109.272 83.5123 111.323 83.5123 113.101C83.5123 114.451 84.2979 115.732 85.4421 116.621C86.6034 117.527 88.1063 117.988 89.5067 117.698C91.2657 117.339 92.9736 115.664 93.8787 112.007C93.9299 111.768 94.0324 111.545 94.1519 111.34V72.8711C94.1007 72.7856 94.0495 72.6831 93.9982 72.5806L93.9812 72.5464L93.9641 72.5122L93.947 72.478V72.4609V72.4439L93.9299 72.4097V72.3926V72.3755C93.9128 72.3071 93.8958 72.2388 93.8787 72.1704C92.9736 68.5303 91.2657 66.8726 89.5067 66.5137C88.3625 66.2744 87.1328 66.5479 86.0911 67.1631C85.0322 67.7783 84.1783 68.7354 83.7684 69.8291C83.239 71.2647 83.5635 73.042 85.3909 74.7339C86.3643 75.6397 86.4156 77.1436 85.5275 78.1177C84.6223 79.0918 83.1195 79.1431 82.146 78.2544C80.6602 76.853 79.7038 75.4004 79.1915 73.9478ZM79.6868 81.8604C80.6261 80.9375 82.146 80.9375 83.0853 81.8945C84.0075 82.8345 84.0075 84.3555 83.0512 85.2954C81.3946 86.9189 80.5236 89.0381 80.4382 91.1743C80.3528 93.396 81.0701 95.686 82.59 97.5659C83.4269 98.5913 83.2561 100.112 82.2314 100.933C81.2067 101.77 79.6868 101.599 78.867 100.574C76.5956 97.7539 75.5197 94.3359 75.6563 90.9863C75.7759 87.6538 77.108 84.3897 79.6868 81.8604ZM108.327 84.3897C107.251 83.6035 107.012 82.1167 107.797 81.04C108.583 79.9634 110.069 79.7241 111.145 80.5103C111.555 80.8179 111.947 81.1255 112.306 81.4502C115.004 83.894 116.49 87.1069 116.763 90.4395C117.037 93.7378 116.114 97.1387 114.031 99.9927C113.997 100.044 113.946 100.112 113.894 100.164C113.604 100.557 113.314 100.898 113.04 101.223C112.152 102.214 110.632 102.283 109.642 101.394C108.651 100.505 108.583 98.9844 109.471 97.9932C109.693 97.7368 109.881 97.5147 110.052 97.2925C110.086 97.2412 110.103 97.207 110.137 97.1558C111.52 95.2417 112.135 92.9858 111.964 90.7983C111.794 88.645 110.837 86.5772 109.095 85.0049C108.856 84.7998 108.6 84.5947 108.327 84.3897ZM3.72323 100.591C1.72508 100.642 0.0685053 99.0869 0.000192734 97.0874C-0.0681198 95.0879 1.50307 93.4302 3.50121 93.3618L18.3592 92.8491C20.3573 92.7808 22.0139 94.353 22.0822 96.3525C22.1505 98.3521 20.5793 100.01 18.5812 100.078L3.72323 100.591ZM189.021 85.8765C191.002 85.6714 192.778 87.124 192.983 89.1064C193.188 91.0889 191.736 92.8662 189.755 93.0713L174.966 94.6265C172.985 94.8315 171.208 93.3789 171.004 91.3965C170.799 89.4141 172.25 87.6367 174.231 87.4316L189.021 85.8765ZM162.089 25.2588C163.199 23.6011 165.436 23.1567 167.093 24.2676C168.749 25.3784 169.193 27.6172 168.083 29.2749L159.817 41.648C158.707 43.3057 156.47 43.75 154.813 42.6392C153.157 41.5283 152.713 39.2896 153.823 37.6318L162.089 25.2588ZM98.4215 3.52051C98.4727 1.52099 100.129 -0.0512712 102.11 -1.67401e-06C104.108 0.0512679 105.68 1.70898 105.628 3.69141L105.253 18.5596C105.201 20.5591 103.545 22.1313 101.564 22.0801C99.5657 22.0288 97.9945 20.3711 98.0458 18.3887L98.4215 3.52051ZM23.7046 26.5405C22.2359 25.1733 22.1676 22.8833 23.5168 21.4307C24.883 19.9609 27.1715 19.8926 28.6231 21.2427L39.5019 31.394C40.9706 32.7612 41.0389 35.0513 39.6898 36.5039C38.3235 37.9736 36.0351 38.042 34.5834 36.6919L23.7046 26.5405ZM81.7703 165.686L113.348 161.209C116.063 149.758 121.972 142.871 128.377 135.437C133.637 129.319 139.238 122.791 143.337 112.639C146.343 105.205 147.453 98.2324 147.282 91.8066C147.111 85.398 145.643 79.4849 143.457 74.1357C139.529 64.5142 132.339 56.8579 123.578 51.6626C116.558 47.5098 108.549 44.9292 100.368 44.1943C92.2221 43.4424 83.9051 44.519 76.237 47.6465C67.2539 51.3208 59.1759 57.8491 53.3694 67.6758C48.8607 76.4258 46.7772 84.7998 46.7089 92.8491C46.6406 100.95 48.6046 108.794 52.1739 116.433C55.8115 124.226 60.6617 129.763 65.307 135.095C72.531 143.384 79.3794 151.228 81.7703 165.686ZM112.067 169.224L82.573 173.411C82.6584 175.291 82.6925 177.256 82.6584 179.341L111.777 175.205C111.811 173.103 111.896 171.104 112.067 169.224ZM82.8121 187.168C83.017 188.74 83.3244 190.176 83.7172 191.509L111.982 188.022C112.169 186.553 112.204 184.998 112.067 183.34V183.306L112.05 183.015L82.8121 187.168ZM87.7306 198.857C88.8236 200.002 90.0361 200.891 91.317 201.506C93.281 202.463 95.4499 202.856 97.5846 202.737C99.7706 202.6 101.974 201.934 103.972 200.771C105.85 199.678 107.541 198.157 108.89 196.243L87.7306 198.857Z" fill="white"/>
</g>
<defs>
<clipPath id="clip0_491_6">
<rect width="193" height="210" fill="white"/>
</clipPath>
</defs>
</svg>
