<svg width="26" height="26" viewBox="0 0 26 26" fill="none" xmlns="http://www.w3.org/2000/svg">
<path d="M2.39081 7.16602H22.7033C23.1348 7.16602 23.4846 6.81626 23.4846 6.38477V4.43164C23.4846 4.00015 23.1348 3.65039 22.7033 3.65039H2.39081C1.95931 3.65039 1.60956 4.00015 1.60956 4.43164V6.38477C1.60956 6.81626 1.95931 7.16602 2.39081 7.16602ZM2.39081 14.9785H22.7033C23.1348 14.9785 23.4846 14.6288 23.4846 14.1973V12.2441C23.4846 11.8126 23.1348 11.4629 22.7033 11.4629H2.39081C1.95931 11.4629 1.60956 11.8126 1.60956 12.2441V14.1973C1.60956 14.6288 1.95931 14.9785 2.39081 14.9785ZM2.39081 22.791H22.7033C23.1348 22.791 23.4846 22.4413 23.4846 22.0098V20.0566C23.4846 19.6251 23.1348 19.2754 22.7033 19.2754H2.39081C1.95931 19.2754 1.60956 19.6251 1.60956 20.0566V22.0098C1.60956 22.4413 1.95931 22.791 2.39081 22.791Z" fill="white"/>
</svg>
