<svg width="77" height="96" viewBox="0 0 77 96" fill="none" xmlns="http://www.w3.org/2000/svg">
<g clip-path="url(#clip0_6942_11)">
<path d="M6.02544 0H48.9342C49.1733 2.0154e-05 49.4096 0.0508671 49.6277 0.149195C49.8458 0.247523 50.0407 0.391104 50.1995 0.57049L76.4823 26.1431C76.6449 26.3007 76.774 26.4896 76.862 26.6986C76.95 26.9076 76.995 27.1323 76.9944 27.3591H77V89.9498C77 91.6068 76.3216 93.1175 75.2301 94.2172L75.2208 94.2266C74.1256 95.3207 72.623 96 70.9746 96H6.02544C4.36769 96 2.85947 95.3188 1.76801 94.2228C0.678422 93.1288 0 91.6144 0 89.9498V6.0502C0 4.38564 0.678422 2.87122 1.76801 1.77528C2.85947 0.68121 4.36769 0 6.02544 0ZM16.5363 77.7575C15.6 77.7575 14.8393 76.9955 14.8393 76.0554C14.8393 75.1152 15.6 74.3514 16.5363 74.3514H60.4637C61.4 74.3514 62.1588 75.1152 62.1588 76.0554C62.1588 76.9955 61.4 77.7575 60.4637 77.7575H16.5363ZM16.5363 63.8292C15.6 63.8292 14.8393 63.0673 14.8393 62.1271C14.8393 61.187 15.6 60.4232 16.5363 60.4232H59.7797C60.716 60.4232 61.4767 61.187 61.4767 62.1271C61.4767 63.0673 60.716 63.8292 59.7797 63.8292H16.5363ZM16.5363 49.901C15.6 49.901 14.8393 49.1372 14.8393 48.197C14.8393 47.2569 15.6 46.495 16.5363 46.495H51.5265C52.4628 46.495 53.2234 47.2569 53.2234 48.197C53.2234 49.1372 52.4628 49.901 51.5265 49.901H16.5363ZM16.5363 35.9709C15.6 35.9709 14.8393 35.209 14.8393 34.2688C14.8393 33.3286 15.6 32.5649 16.5363 32.5649H37.9262C38.8626 32.5649 39.6214 33.3286 39.6214 34.2688C39.6214 35.209 38.8626 35.9709 37.9262 35.9709H16.5363ZM16.5363 22.0427C15.6 22.0427 14.8393 21.2808 14.8393 20.3406C14.8393 19.8887 15.0181 19.4553 15.3364 19.1357C15.6546 18.8162 16.0862 18.6366 16.5363 18.6366H27.0565C27.2794 18.6366 27.5001 18.6807 27.7059 18.7663C27.9118 18.852 28.0989 18.9775 28.2565 19.1357C28.4141 19.2939 28.5391 19.4818 28.6243 19.6885C28.7096 19.8953 28.7535 20.1168 28.7535 20.3406C28.7535 21.2808 27.9929 22.0427 27.0565 22.0427H16.5363ZM49.4987 4.61834V26.0868H71.5651L49.4987 4.61834ZM73.6079 29.4928H47.8035C46.8672 29.4928 46.1066 28.7291 46.1066 27.7889V3.40605H6.02544C5.30403 3.40605 4.6443 3.70443 4.16585 4.18485C3.68927 4.66338 3.39211 5.32583 3.39211 6.0502V89.9498C3.39211 90.6742 3.68927 91.3366 4.16585 91.8152C4.6443 92.2956 5.30403 92.5939 6.02544 92.5939H70.9746C71.7016 92.5939 72.3594 92.2974 72.8323 91.8227L72.8398 91.8152C73.3126 91.3404 73.6079 90.6798 73.6079 89.9498V29.4928Z" fill="white"/>
</g>
<defs>
<clipPath id="clip0_6942_11">
<rect width="77" height="96" fill="white"/>
</clipPath>
</defs>
</svg>
