<svg width="25" height="25" viewBox="0 0 25 25" fill="none" xmlns="http://www.w3.org/2000/svg">
<g clip-path="url(#clip0_7038_2)">
<path d="M23.7989 15.4151L21.7188 14.2139C21.9288 13.0811 21.9288 11.919 21.7188 10.7862L23.7989 9.58501C24.0381 9.44829 24.1456 9.16509 24.0674 8.90141C23.5254 7.16313 22.6026 5.59087 21.3965 4.28227C21.211 4.08208 20.9083 4.03325 20.6739 4.16997L18.5938 5.37114C17.7198 4.61919 16.7139 4.03813 15.6251 3.65727V1.25981C15.6251 0.986374 15.4346 0.747116 15.1661 0.688522C13.3741 0.288132 11.5381 0.307663 9.83404 0.688522C9.56548 0.747116 9.37505 0.986374 9.37505 1.25981V3.66216C8.29107 4.0479 7.28521 4.62895 6.4063 5.37602L4.33111 4.17485C4.09185 4.03813 3.794 4.08208 3.60845 4.28716C2.4024 5.59087 1.47955 7.16313 0.937555 8.9063C0.854547 9.16997 0.966852 9.45317 1.20611 9.58989L3.28619 10.7911C3.07623 11.9239 3.07623 13.086 3.28619 14.2188L1.20611 15.42C0.966852 15.5567 0.85943 15.8399 0.937555 16.1036C1.47955 17.8418 2.4024 19.4141 3.60845 20.7227C3.794 20.9229 4.09673 20.9717 4.33111 20.835L6.41119 19.6338C7.28521 20.3858 8.29107 20.9668 9.37994 21.3477V23.75C9.37994 24.0235 9.57037 24.2627 9.83892 24.3213C11.6309 24.7217 13.4669 24.7022 15.171 24.3213C15.4395 24.2627 15.6299 24.0235 15.6299 23.75V21.3477C16.7139 20.962 17.7198 20.3809 18.5987 19.6338L20.6788 20.835C20.918 20.9717 21.2159 20.9278 21.4014 20.7227C22.6075 19.419 23.5303 17.8467 24.0723 16.1036C24.1456 15.835 24.0381 15.5518 23.7989 15.4151ZM12.5001 16.4063C10.3467 16.4063 8.5938 14.6534 8.5938 12.5C8.5938 10.3467 10.3467 8.5938 12.5001 8.5938C14.6534 8.5938 16.4063 10.3467 16.4063 12.5C16.4063 14.6534 14.6534 16.4063 12.5001 16.4063Z" fill="white"/>
</g>
<defs>
<clipPath id="clip0_7038_2">
<rect width="25" height="25" fill="white"/>
</clipPath>
</defs>
</svg>
